Coordinates
version=1
nRows=16
nColumns=36
inDegrees=yes

Units are S.I. units (second, meters, Newtons, ...)
If the header above contains a line with 'inDegrees', this indicates whether rotational values are in degrees (yes) or radians (no).

endheader
time	pelvis_tilt	pelvis_list	pelvis_rotation	pelvis_tx	pelvis_ty	pelvis_tz	hip_flexion_r	hip_adduction_r	hip_rotation_r	knee_angle_r	knee_angle_r_beta	ankle_angle_r	subtalar_angle_r	mtp_angle_r	hip_flexion_l	hip_adduction_l	hip_rotation_l	knee_angle_l	knee_angle_l_beta	ankle_angle_l	subtalar_angle_l	mtp_angle_l	lumbar_extension	lumbar_bending	lumbar_rotation	arm_flex_r	arm_add_r	arm_rot_r	elbow_flex_r	pro_sup_r	arm_flex_l	arm_add_l	arm_rot_l	elbow_flex_l	pro_sup_l
      3.56000000	      3.10059926	     -0.27173200	      2.78753127	     -0.53699074	      0.57415506	     -0.68594452	     83.90775373	    -18.54789685	      6.62222555	    103.61133428	      1.80835893	     24.61112640	      1.56949316	     -7.49999987	     84.65061330	    -11.63186003	      3.94580385	    102.00951197	      1.78040185	     22.31878635	      0.10936096	     -7.49999987	    -26.99505784	     -0.76541306	     -2.09227445	     28.23426248	    -12.05492150	      8.67518257	    116.29511852	     96.65747435	     35.03187982	    -10.65730556	     11.59589948	    115.65374462	    106.00162971
      3.57000000	      2.87775507	     -0.23171804	      2.72654039	     -0.53666724	      0.57414320	     -0.68585555	     84.15898287	    -18.53892315	      6.65453114	    103.61169413	      1.80836521	     24.61422478	      1.65004227	     -7.49999987	     84.81429071	    -11.68374880	      3.88599836	    101.98941821	      1.78005115	     22.38884977	      0.08711690	     -7.49999987	    -27.13991615	     -0.79280681	     -1.96868103	     28.45999979	    -12.18180678	      8.53738095	    116.33662653	     97.26834393	     35.40462622	    -10.52314181	     11.68971988	    115.43257805	    106.91450706
      3.58000000	      2.65152839	     -0.25372126	      2.59876828	     -0.53634486	      0.57413265	     -0.68552367	     84.37236295	    -18.42021164	      6.62231357	    103.58601696	      1.80791706	     24.77962990	      1.81988299	     -7.49999987	     85.00339310	    -11.85246176	      3.89847022	    101.98997824	      1.78006092	     22.60546024	      0.24999117	     -7.49999987	    -27.31805403	     -0.77642453	     -1.86920980	     28.83866131	    -12.25415330	      8.54149590	    116.38001680	     96.90159749	     35.77335613	    -10.51947841	     11.75225165	    115.44288085	    106.26665870
      3.59000000	      2.43036968	     -0.27573995	      2.51383204	     -0.53593392	      0.57416753	     -0.68524620	     84.56161246	    -18.33784135	      6.55498562	    103.56502111	      1.80755061	     24.75168203	      1.77001807	     -7.49999987	     85.18654979	    -11.98380572	      3.89188205	    101.97613745	      1.77981936	     22.65541764	      0.29124202	     -7.49999987	    -27.52764027	     -0.72441356	     -1.76699470	     29.26546192	    -12.31567501	      8.54277098	    116.23258014	     97.67127292	     36.16432036	    -10.50661547	     11.77867222	    115.31192627	    106.86439137
      3.60000000	      2.12716675	     -0.27792026	      2.47712704	     -0.53539771	      0.57406837	     -0.68526440	     84.84215212	    -18.35242596	      6.50210519	    103.53705091	      1.80706244	     24.74333727	      1.52352646	     -7.49999987	     85.45035191	    -12.01247309	      3.86755107	    101.96276529	      1.77958597	     22.63408313	      0.07616611	     -7.49999987	    -27.69446007	     -0.67204471	     -1.73695122	     29.71242999	    -12.33232118	      8.45776096	    116.18826829	     96.96884336	     36.53461098	    -10.38679799	     11.78589423	    115.38107568	    106.22924323
      3.61000000	      1.84430085	     -0.17673087	      2.47051581	     -0.53473928	      0.57388764	     -0.68533769	     85.17515033	    -18.48306548	      6.60156880	    103.61135716	      1.80835932	     25.13446149	      2.23558709	     -7.49999987	     85.64905012	    -11.98935417	      3.76705041	    101.99414733	      1.78013369	     23.07156793	      0.49490323	     -7.49999987	    -27.90613743	     -0.69937249	     -1.76227573	     30.23124299	    -12.51278368	      8.72163571	    116.22395461	     96.31421079	     37.10264123	    -10.54058229	     12.13413249	    115.29400861	    105.45160457
      3.62000000	      1.47425492	     -0.14170804	      2.42626403	     -0.53418629	      0.57362897	     -0.68522434	     85.57004471	    -18.51655236	      6.59805146	    103.61302542	      1.80838844	     25.17737966	      2.31046861	     -7.49999987	     85.96630906	    -12.00146890	      3.75354480	    101.98932348	      1.78004950	     23.16873166	      0.48114785	     -7.49999987	    -28.10460089	     -0.68742084	     -1.72060780	     30.86133008	    -12.68378827	      8.76555339	    116.21892806	     95.84267586	     37.70696484	    -10.60357673	     12.33872172	    115.28077008	    104.91873912
      3.63000000	      1.05506882	     -0.17839583	      2.41241207	     -0.53355955	      0.57329103	     -0.68512076	     85.96924761	    -18.51758348	      6.54061869	    103.60378692	      1.80822720	     25.06894451	      1.90228521	     -7.49999987	     86.38221990	    -12.02492210	      3.76105041	    101.99076518	      1.78007466	     23.08461188	      0.13494606	     -7.49999987	    -28.27493069	     -0.55800278	     -1.67198135	     31.47107354	    -12.70826861	      8.70721709	    116.22676246	     94.74255258	     38.28486717	    -10.46276126	     12.35855226	    115.41496831	    103.51750068
      3.64000000	      0.67846712	     -0.16040353	      2.37509591	     -0.53283777	      0.57304449	     -0.68501895	     86.35447601	    -18.54272391	      6.54438058	    103.62407659	      1.80858132	     25.12174262	      1.97272968	     -7.49999987	     86.71975266	    -12.09620956	      3.68614101	    102.01370978	      1.78047512	     23.15252690	      0.18084860	     -7.49999987	    -28.56778125	     -0.48357651	     -1.65500396	     32.26484004	    -12.79650674	      8.71304299	    116.21750956	     94.76969833	     39.03702291	    -10.44776838	     12.36317268	    115.32572709	    103.53748113
      3.65000000	      0.26975326	     -0.09904052	      2.32747203	     -0.53193910	      0.57272667	     -0.68494411	     86.78546886	    -18.54764187	      6.63575733	    103.66674807	      1.80932608	     25.39595516	      2.13061915	     -7.49999987	     87.05184016	    -12.12185099	      3.61879400	    102.04740222	      1.78106316	     23.41848299	      0.33213306	     -7.49999987	    -28.81466227	     -0.47168079	     -1.62060993	     33.12783499	    -13.19820749	      9.24098050	    116.05608254	     94.90418464	     39.93589872	    -10.61447574	     12.83006983	    115.03008168	    103.66903179
      3.66000000	     -0.19519365	     -0.07969394	      2.31048398	     -0.53096780	      0.57224223	     -0.68483011	     87.26760251	    -18.58811497	      6.64850934	    103.72248341	      1.81029884	     25.51581586	      2.12424953	     -7.49999987	     87.48887623	    -12.16748832	      3.59004944	    102.09295058	      1.78185813	     23.53592071	      0.32266530	     -7.49999987	    -29.06482549	     -0.39785289	     -1.62467606	     34.02897215	    -13.30736047	      9.12876387	    116.04357842	     94.92437809	     40.76310608	    -10.64401251	     12.80023567	    115.00976770	    103.68878550
      3.67000000	     -0.79137231	     -0.07260932	      2.29166341	     -0.52992449	      0.57157986	     -0.68465351	     87.86450137	    -18.58421039	      6.66524966	    103.77283617	      1.81117767	     25.87491976	      2.15128216	     -7.49999987	     88.05234451	    -12.17175928	      3.60100224	    102.13184391	      1.78253695	     23.87256059	      0.30280743	     -7.49999987	    -29.18382409	     -0.34184305	     -1.62116475	     35.05405153	    -13.62881853	      9.49216866	    115.85016942	     95.03136969	     41.79532242	    -10.91678356	     13.28319222	    114.81637675	    103.79660889
      3.68000000	     -1.39699002	     -0.09404643	      2.22778510	     -0.52875403	      0.57096014	     -0.68431706	     88.44211774	    -18.51143085	      6.63727362	    103.81447450	      1.81190439	     26.11361874	      2.22795224	     -7.49999987	     88.63301918	    -12.27811743	      3.60088464	    102.19672921	      1.78366941	     24.07086771	      0.42015984	     -7.49999987	    -29.32385872	     -0.27509832	     -1.57399205	     36.17575631	    -13.88293648	      9.67029447	    115.68161486	     95.12938816	     42.89370298	    -11.06951291	     13.51813727	    114.62031307	    103.87944162
      3.69000000	     -2.02564293	     -0.09898024	      2.16477360	     -0.52740217	      0.57033206	     -0.68395652	     89.05494814	    -18.46510098	      6.59061214	    103.87918557	      1.81303381	     26.21937148	      2.23825868	     -7.49999987	     89.22822502	    -12.41117312	      3.56346826	    102.28025980	      1.78512729	     24.19786741	      0.44075303	     -7.49999987	    -29.50709680	     -0.20543074	     -1.54016008	     37.35312408	    -14.04387039	      9.56872459	    115.65004411	     95.14403186	     43.99375213	    -11.14212761	     13.46089702	    114.54501762	    103.88375660
      3.70000000	     -2.95851207	     -0.19519206	      1.97564824	     -0.52587991	      0.56908614	     -0.68340126	     89.95476276	    -18.17989192	      6.53192638	    103.90186504	      1.81342964	     26.48547914	      2.31253191	     -7.49999987	     90.19664982	    -12.63585632	      3.73809422	    102.41885074	      1.78754616	     24.73159902	      0.49028044	     -7.49999987	    -29.22728053	     -0.11167370	     -1.37689532	     38.64414990	    -14.56459720	     10.28757356	    115.32822997	     95.22911540	     45.22899423	    -11.56437722	     14.13986163	    114.15829993	    103.94561399
      3.71000000	     -3.69511089	     -0.18042884	      1.94772923	     -0.52419866	      0.56846591	     -0.68321150	     90.65455375	    -18.23495550	      6.46224834	    103.97077722	      1.81463239	     26.61773355	      2.31437529	     -7.49999987	     90.86615861	    -12.72143580	      3.68567546	    102.50250754	      1.78900625	     24.95194477	      0.45364457	     -7.49999987	    -29.32973053	     -0.05616273	     -1.38028257	     39.96996500	    -14.77470105	     10.16007079	    115.27954115	     95.23859298	     46.49282515	    -11.67105100	     14.05485176	    114.07898239	    103.94138664
